<?xml version="1.0" ?><!-- Uploaded to: SVG Repo, www.svgrepo.com, Generator: SVG Repo Mixer Tools -->
<svg fill="#000000" width="800px" height="800px" viewBox="0 -0.08 20 20" data-name="Capa 1" id="Capa_1" xmlns="http://www.w3.org/2000/svg"><path d="M13.87,6.08h-.68V5.16a.38.38,0,0,0-.75,0v.92h-5V5.16a.38.38,0,0,0-.75,0v.92h-.6A1.72,1.72,0,0,0,4.41,7.8v5.53a1.73,1.73,0,0,0,1.72,1.73h7.74a1.73,1.73,0,0,0,1.72-1.73V7.8A1.72,1.72,0,0,0,13.87,6.08Zm1,7.25a1,1,0,0,1-1,1H6.13a1,1,0,0,1-1-1V7.8a1,1,0,0,1,1-1h.6v1a.38.38,0,0,0,.75,0v-1h5v1a.38.38,0,0,0,.75,0v-1h.68a1,1,0,0,1,1,1Z"/><path d="M7.15,9.41h-.1a.38.38,0,0,0-.37.38.37.37,0,0,0,.37.37h.1a.37.37,0,0,0,.38-.37A.38.38,0,0,0,7.15,9.41Z"/><path d="M9.15,9.41h-.1a.38.38,0,0,0-.37.38.37.37,0,0,0,.37.37h.1a.37.37,0,0,0,.38-.37A.38.38,0,0,0,9.15,9.41Z"/><path d="M11,9.41h-.1a.38.38,0,0,0-.38.38.37.37,0,0,0,.38.37H11a.37.37,0,0,0,.38-.37A.38.38,0,0,0,11,9.41Z"/><path d="M12.86,9.41h-.1a.38.38,0,0,0-.37.38.37.37,0,0,0,.37.37h.1a.37.37,0,0,0,.38-.37A.38.38,0,0,0,12.86,9.41Z"/><path d="M7.15,11.62h-.1a.38.38,0,0,0,0,.75h.1a.38.38,0,1,0,0-.75Z"/><path d="M9.15,11.62h-.1a.38.38,0,0,0,0,.75h.1a.38.38,0,1,0,0-.75Z"/><path d="M11,11.62h-.1a.38.38,0,1,0,0,.75H11a.38.38,0,1,0,0-.75Z"/><path d="M12.86,11.62h-.1a.38.38,0,0,0,0,.75h.1a.38.38,0,1,0,0-.75Z"/></svg>